<!-- Generator: Adobe Illustrator 22.0.1, SVG Export Plug-In  -->
<svg version="1.1"
	 xmlns="http://www.w3.org/2000/svg" xmlns:xlink="http://www.w3.org/1999/xlink" xmlns:a="http://ns.adobe.com/AdobeSVGViewerExtensions/3.0/"
	 x="0px" y="0px" width="73.197px" height="126px" viewBox="0 0 73.197 126" style="enable-background:new 0 0 73.197 126;"
	 xml:space="preserve">
<defs>
</defs>
<g>
	<path d="M64.688,0H8.509C3.834,0,0,3.834,0,8.509V117.49c0,4.676,3.834,8.51,8.509,8.51h56.178c4.675,0,8.509-3.834,8.509-8.51
		V8.509C73.197,3.834,69.363,0,64.688,0L64.688,0z M27.616,6.133H45.58c0.581,0,1.035,0.459,1.035,1.039
		c0,0.563-0.454,1.017-1.035,1.017H27.616c-0.58,0-1.04-0.454-1.04-1.017C26.577,6.592,27.036,6.133,27.616,6.133L27.616,6.133z
		 M36.598,121.747c-2.358,0-4.252-1.899-4.252-4.257c0-2.354,1.895-4.252,4.252-4.252c2.354,0,4.253,1.899,4.253,4.252
		C40.851,119.848,38.952,121.747,36.598,121.747L36.598,121.747z M67.27,110.25H5.922V13.5H67.27V110.25z M67.27,110.25"/>
</g>
</svg>
