<!-- Generator: Adobe Illustrator 22.0.1, SVG Export Plug-In  -->
<svg version="1.1"
	 xmlns="http://www.w3.org/2000/svg" xmlns:xlink="http://www.w3.org/1999/xlink" xmlns:a="http://ns.adobe.com/AdobeSVGViewerExtensions/3.0/"
	 x="0px" y="0px" width="339.042px" height="297.281px" viewBox="0 0 339.042 297.281"
	 style="enable-background:new 0 0 339.042 297.281;" xml:space="preserve">
<defs>
</defs>
<g>
	<g>
		<path d="M338.359,274.238l-13.437-46.718c-0.32-0.961-0.961-1.918-1.602-2.559c-8.32-25.281-28.8-44.801-54.718-51.52l-3.84-0.64
			c-5.762-1.602-12.16,0.32-16.321,5.121c-14.082,16-32,17.277-50.879,17.277c-18.882,0-36.8-1.277-50.882-17.277
			c-4.16-4.801-10.559-6.723-16.321-5.121l-3.839,0.961C107,178.879,90.359,191.359,79.801,208H39.48c-0.32,0-0.32,0-0.64-0.32
			c0-0.321-0.32-0.641-0.32-1.282l8.32-29.757c7.359-23.36,21.441-30.403,48.961-37.442c1.281-0.32,2.242-0.961,2.879-1.597
			c2.242,1.918,4.8,3.519,7.363,4.796c0.957,0.641,1.918,0.641,2.879,0.641c2.238,0,4.48-1.277,5.758-3.519
			c1.601-3.2,0.32-7.04-2.879-8.641c-14.719-7.68-25.281-29.438-25.281-51.84c0-19.84,16.32-36.16,36.16-36.16
			c3.84,0,7.363,0.641,10.882,1.601c-3.519,8.641-5.441,17.918-5.441,27.84c0,54.719,32.961,100.801,72,100.801
			c38.399,0,72.32-47.043,72.32-100.801c0-40-32.32-72.32-72.32-72.32c-25.281,0-47.68,13.121-60.48,32.961
			c-5.442-1.922-11.2-2.883-16.961-2.883c-17.278,0-32.637,9.281-41.278,23.043c-0.64-0.641-1.281-0.961-1.922-1.281
			c-4.8-2.559-9.597-3.52-15.039-3.52c-17.921-0.32-32.32,14.078-32.32,32c0,10.239,2.879,19.84,7.359,27.52
			c-14.718,3.84-27.839,9.601-33.918,29.121L0.441,155.52c-0.961,3.199-0.32,6.718,1.602,9.281c1.918,2.879,5.437,4.48,8.957,4.48
			h24.641c-0.321,1.278-0.961,2.559-1.282,3.84l-8.316,30.078c-1.281,4.16-0.32,8.641,2.559,12.16
			c2.558,3.52,6.398,5.442,10.878,5.442h33.922c-0.961,2.238-1.601,4.48-2.242,6.719l-13.437,47.039
			c-1.282,5.441-0.321,11.203,3.199,15.679c3.519,4.481,8.64,7.043,14.078,7.043h246.082c5.438,0,10.879-2.562,14.078-7.043
			C338.68,285.762,339.961,280,338.359,274.238L338.359,274.238z M147.32,45.441c0.321-0.32,0.641-0.64,0.961-1.281
			c0.321-0.32,0.321-0.961,0.641-1.281c9.918-17.918,29.121-30.078,51.199-30.078c26.559,0,48.961,17.597,56.641,41.597
			c-11.2,2.243-23.039-2.238-30.082-11.839c-2.239-2.879-6.078-3.52-8.957-1.278c-1.282,0.957-1.922,1.918-2.243,3.199
			c-0.32,0.321-0.32,0.641-0.64,0.961c-8.957,18.239-39.039,25.918-73.278,19.2C142.52,57.922,144.441,51.52,147.32,45.441
			L147.32,45.441z M165.242,79.68c25.598,0,46.719-8,57.598-23.039c8,7.039,17.922,10.879,28.48,10.879c2.563,0,5.442-0.321,8-0.961
			c0.321,1.921,0.321,3.519,0.321,5.441c0,47.039-27.84,88.32-59.52,88.32c-30.398,0-56.961-38.082-59.199-82.879
			C149.242,79.039,157.562,79.68,165.242,79.68L165.242,79.68z M13.562,156.48l4.481-16c3.84-13.121,11.84-16.96,27.84-20.8
			c0.957-0.321,1.918-0.641,2.558-1.282c1.602,1.282,2.879,2.243,4.801,3.204c0.957,0.636,1.918,0.636,2.879,0.636
			c2.238,0,4.481-1.277,5.762-3.519c1.597-3.199,0.316-7.039-2.563-8.641C51,105.602,44.922,93.121,44.922,80.32
			c0-10.879,8.64-19.519,19.519-19.519c3.52,0,6.399,0.64,9.282,2.238c0.957,0.32,1.597,0.641,2.558,0.641
			c-1.601,4.8-2.558,9.922-2.558,15.359c0,18.242,6.078,36.16,15.679,48.641c-19.203,4.8-36.16,11.199-47.359,28.8H13.562z
			 M325.242,282.559c-0.64,0.64-1.922,1.921-4.16,1.921H75c-2.238,0-3.52-1.281-4.16-1.921c-0.957-1.278-1.278-3.2-0.957-4.481
			l13.437-46.719c6.403-22.078,24-39.359,46.403-45.121l3.839-0.957c0.958-0.32,2.559,0.321,3.52,1.278
			c17.598,20.16,39.359,21.761,60.48,21.761c21.118,0,42.879-1.601,60.481-21.761c0.957-0.957,2.238-1.598,3.84-1.278l3.84,0.957
			c22.078,5.762,40,23.043,46.398,45.121l5.762,19.84c0.316,0.961,0.637,1.602,1.277,2.242l7.039,24.321
			C326.52,279.359,326.199,281.281,325.242,282.559L325.242,282.559z M325.242,282.559"/>
	</g>
</g>
</svg>
